<svg xmlns="http://www.w3.org/2000/svg" xmlns:xlink="http://www.w3.org/1999/xlink" width="1920" height="1080" viewBox="0 0 1920 1080">
  <defs>
    <clipPath id="clip-Web_1920_1">
      <rect width="1920" height="1080"/>
    </clipPath>
  </defs>
  <g id="Web_1920_1" data-name="Web 1920 – 1" clip-path="url(#clip-Web_1920_1)">
    <rect width="1920" height="1080"/>
    <line id="Line_2" data-name="Line 2" y1="30" x2="38" transform="translate(134.5 924.5)" fill="none" stroke="#ee352e" stroke-linecap="round" stroke-width="5"/>
    <line id="Line_4" data-name="Line 4" x1="38" y1="38" transform="translate(175.5 201.5)" fill="none" stroke="#000aff" stroke-linecap="round" stroke-width="5"/>
    <line id="Line_5" data-name="Line 5" y1="410" transform="translate(213.5 239.5)" fill="none" stroke="#0039a5" stroke-linecap="round" stroke-width="5"/>
    <line id="Line_7" data-name="Line 7" x2="38" y2="38" transform="translate(134.5 161.5)" fill="none" stroke="#ee352e" stroke-linecap="round" stroke-width="5"/>
    <line id="Line_6" data-name="Line 6" y1="30" x2="38" transform="translate(175.5 649.5)" fill="none" stroke="#0039a6" stroke-linecap="round" stroke-width="5"/>
    <line id="Line_1" data-name="Line 1" y1="1080" transform="translate(134.5 0.5)" fill="none" stroke="#fccc0a" stroke-width="5"/>
    <line id="Line_3" data-name="Line 3" y1="725" transform="translate(172.5 199.5)" fill="none" stroke="#ee352e" stroke-linecap="round" stroke-width="5"/>
    <ellipse id="Ellipse_1" data-name="Ellipse 1" cx="18.5" cy="18" rx="18.5" ry="18" transform="translate(116 995)" fill="#fdcc09"/>
    <text id="_1" data-name="1" transform="translate(127 1022)" font-size="26" font-family="Helvetica-Bold, Helvetica" font-weight="700"><tspan x="0" y="0">1</tspan></text>
    <ellipse id="Ellipse_2" data-name="Ellipse 2" cx="18.5" cy="18" rx="18.5" ry="18" transform="translate(154 850)" fill="#ee352e"/>
    <text id="_2" data-name="2" transform="translate(165 876)" fill="#fff" font-size="26" font-family="Helvetica-Bold, Helvetica" font-weight="700"><tspan x="0" y="0">2</tspan></text>
    <ellipse id="Ellipse_3" data-name="Ellipse 3" cx="18.5" cy="18" rx="18.5" ry="18" transform="translate(153 726)" fill="#ee352e"/>
    <text id="_3" data-name="3" transform="translate(165 753)" fill="#fff" font-size="26" font-family="Helvetica-Bold, Helvetica" font-weight="700"><tspan x="0" y="0">3</tspan></text>
    <line id="Line_8" data-name="Line 8" x2="38" y2="38" transform="translate(134.5 498.5)" fill="none" stroke="#ee352e" stroke-linecap="round" stroke-width="5"/>
    <ellipse id="Ellipse_4" data-name="Ellipse 4" cx="18.5" cy="18" rx="18.5" ry="18" transform="translate(195 534)" fill="#0039a5"/>
    <text id="_4" data-name="4" transform="translate(205 561)" fill="#fff" font-size="26" font-family="Helvetica-Bold, Helvetica" font-weight="700"><tspan x="0" y="0">4</tspan></text>
  </g>
</svg>
